<svg xmlns="http://www.w3.org/2000/svg" width="159" height="32" viewBox="0 0 159 32">
    <defs>
        <filter id="a" width="101.6%" height="132%" x="-.8%" y="-16%" filterUnits="objectBoundingBox">
            <feOffset dy="2" in="SourceAlpha" result="shadowOffsetOuter1"/>
            <feGaussianBlur in="shadowOffsetOuter1" result="shadowBlurOuter1" stdDeviation="1"/>
            <feColorMatrix in="shadowBlurOuter1" result="shadowMatrixOuter1" values="0 0 0 0 0 0 0 0 0 0 0 0 0 0 0 0 0 0 0.16 0"/>
            <feMerge>
                <feMergeNode in="shadowMatrixOuter1"/>
                <feMergeNode in="SourceGraphic"/>
            </feMerge>
        </filter>
    </defs>
    <g fill="#FFF" fill-rule="evenodd" filter="url(#a)" transform="translate(-14 -11)">
        <g fill-rule="nonzero">
            <path d="M24.974 12.55c-2.611 0-3.62.195-4.662.752a4.81 4.81 0 0 0-2.01 2.01c-.557 1.041-.752 2.05-.752 4.662v10.052c0 2.611.195 3.62.752 4.662a4.81 4.81 0 0 0 2.01 2.01c1.041.557 2.05.752 4.662.752h10.052c2.611 0 3.62-.195 4.662-.752a4.81 4.81 0 0 0 2.01-2.01c.557-1.041.752-2.05.752-4.662V19.974c0-2.611-.195-3.62-.752-4.662a4.81 4.81 0 0 0-2.01-2.01c-1.041-.557-2.05-.752-4.662-.752H24.974zm0-1.55h10.052c3.12 0 4.252.325 5.393.935a6.36 6.36 0 0 1 2.646 2.646c.61 1.14.935 2.272.935 5.393v10.052c0 3.12-.325 4.252-.935 5.393a6.36 6.36 0 0 1-2.646 2.646c-1.14.61-2.272.935-5.393.935H24.974c-3.12 0-4.252-.325-5.393-.935a6.36 6.36 0 0 1-2.646-2.646c-.61-1.14-.935-2.272-.935-5.393V19.974c0-3.12.325-4.252.935-5.393a6.36 6.36 0 0 1 2.646-2.646c1.14-.61 2.272-.935 5.393-.935z"/>
            <path d="M30.262 33.745c-5.946 0-10.1-4.447-10.182-4.53a.83.83 0 0 1 .18-.96.808.808 0 0 1 .96-.11c.327.33 8.39 8.894 18.002-.082a.809.809 0 0 1 .948.246.83.83 0 0 1 .03.989c-3.584 3.376-7.005 4.447-9.938 4.447zM35.798 20.798a1.7 1.7 0 1 0-2.404-2.404 1.7 1.7 0 0 0 2.404 2.404zm.483 1.579a3.251 3.251 0 0 1-3.983-5.079 3.25 3.25 0 0 1 5.079 3.983l1.656 1.656a.775.775 0 1 1-1.096 1.096l-1.656-1.656zM23.994 20.729a1.7 1.7 0 1 1 2.404-2.404 1.7 1.7 0 0 1-2.404 2.404zm-.482 1.578a3.251 3.251 0 0 0 3.982-5.078 3.25 3.25 0 0 0-5.078 3.982l-1.657 1.657a.775.775 0 1 0 1.096 1.096l1.657-1.657z"/>
        </g>
        <path d="M60.139 31v-1.332c-.383.478-.875.84-1.477 1.086-.6.246-1.291.369-2.07.369-.765 0-1.438-.147-2.02-.44a3.233 3.233 0 0 1-1.342-1.22 3.3 3.3 0 0 1-.471-1.743c0-1.025.362-1.828 1.086-2.409.724-.58 1.75-.878 3.075-.891h3.198v-.288c0-.642-.212-1.14-.636-1.496-.423-.355-1.038-.533-1.844-.533-1.04 0-2.126.342-3.26 1.025l-.964-1.845c.862-.478 1.644-.823 2.348-1.035.704-.212 1.527-.318 2.47-.318 1.421 0 2.525.342 3.31 1.025.787.683 1.186 1.64 1.2 2.87l.02 7.175H60.14zm-.944-2.47c.547-.362.855-.81.923-1.343v-.984H57.35c-.71 0-1.233.106-1.568.318-.335.212-.502.557-.502 1.035 0 .465.174.834.523 1.107.348.273.823.41 1.425.41.765 0 1.42-.181 1.968-.543zm15.734-7.872a4.775 4.775 0 0 1 1.825 1.978c.43.847.645 1.824.645 2.932 0 1.093-.211 2.056-.635 2.89a4.689 4.689 0 0 1-1.804 1.948c-.779.464-1.681.697-2.706.697-.82 0-1.544-.161-2.173-.482a4.09 4.09 0 0 1-1.558-1.404v5.76h-2.665V20.033h2.665v1.804a3.958 3.958 0 0 1 1.527-1.405c.622-.32 1.343-.481 2.163-.481 1.025 0 1.93.235 2.716.707zm-1.097 7.216c.575-.622.861-1.418.861-2.388s-.286-1.763-.86-2.378c-.575-.616-1.312-.923-2.214-.923-.916 0-1.661.307-2.235.923-.574.615-.861 1.407-.861 2.378 0 .984.287 1.783.861 2.398.574.615 1.319.922 2.235.922.902 0 1.64-.31 2.214-.932zm15.058-7.216a4.775 4.775 0 0 1 1.824 1.978c.43.847.646 1.824.646 2.932 0 1.093-.212 2.056-.636 2.89a4.689 4.689 0 0 1-1.804 1.948c-.779.464-1.68.697-2.706.697-.82 0-1.544-.161-2.173-.482a4.09 4.09 0 0 1-1.558-1.404v5.76h-2.665V20.033h2.665v1.804a3.958 3.958 0 0 1 1.528-1.405c.622-.32 1.342-.481 2.162-.481 1.026 0 1.93.235 2.717.707zm-1.097 7.216c.574-.622.861-1.418.861-2.388s-.287-1.763-.861-2.378c-.574-.616-1.312-.923-2.214-.923-.916 0-1.66.307-2.235.923-.574.615-.86 1.407-.86 2.378 0 .984.286 1.783.86 2.398.575.615 1.32.922 2.235.922.902 0 1.64-.31 2.214-.932zm15.908-7.841v9.921c0 1.04-.236 1.945-.707 2.717-.472.772-1.141 1.366-2.01 1.783-.867.417-1.875.625-3.023.625-1.667 0-3.212-.485-4.633-1.455l1.066-1.927c1.039.765 2.18 1.148 3.423 1.148.985 0 1.767-.253 2.348-.758.58-.506.871-1.196.871-2.071v-1.291c-.369.56-.847.987-1.435 1.28-.588.295-1.271.442-2.05.442-.957 0-1.804-.223-2.542-.667a4.547 4.547 0 0 1-1.722-1.865c-.41-.8-.615-1.719-.615-2.757 0-1.026.205-1.93.615-2.717a4.508 4.508 0 0 1 1.722-1.835c.738-.437 1.585-.656 2.542-.656.765 0 1.445.15 2.04.451.594.301 1.076.725 1.445 1.271v-1.64h2.665zm-3.475 7.451c.54-.58.81-1.336.81-2.265 0-.93-.27-1.684-.81-2.265-.54-.581-1.24-.872-2.101-.872s-1.561.294-2.101.882c-.54.588-.817 1.34-.83 2.255.013.93.29 1.684.83 2.265.54.581 1.24.871 2.101.871s1.561-.29 2.101-.87zm10.783-6.97c.636-.376 1.377-.57 2.224-.584v2.583c-1.134-.068-2.04.195-2.716.79-.676.594-1.015 1.397-1.015 2.408V31h-2.665V20.033h2.665v2.111c.37-.71.872-1.254 1.507-1.63zm11.89.133a5.044 5.044 0 0 1 2.03 1.958c.485.84.727 1.808.727 2.901 0 1.107-.242 2.084-.727 2.931a5.025 5.025 0 0 1-2.03 1.968c-.868.465-1.869.697-3.003.697-1.148 0-2.16-.232-3.034-.697a5.008 5.008 0 0 1-2.04-1.968c-.485-.847-.728-1.824-.728-2.931 0-1.093.243-2.06.728-2.9a5.028 5.028 0 0 1 2.04-1.959c.875-.464 1.886-.696 3.034-.696 1.134 0 2.135.232 3.003.696zm-5.258 2.501c-.574.616-.861 1.415-.861 2.399s.287 1.783.861 2.398c.574.616 1.326.923 2.255.923.902 0 1.64-.307 2.214-.923.574-.615.861-1.414.861-2.398 0-.984-.287-1.783-.861-2.399-.574-.615-1.312-.922-2.214-.922-.93 0-1.681.307-2.255.922zm18.132-2.5a5.044 5.044 0 0 1 2.03 1.957c.485.84.728 1.808.728 2.901 0 1.107-.243 2.084-.728 2.931a5.025 5.025 0 0 1-2.03 1.968c-.868.465-1.869.697-3.003.697-1.148 0-2.16-.232-3.034-.697a5.008 5.008 0 0 1-2.04-1.968c-.485-.847-.727-1.824-.727-2.931 0-1.093.242-2.06.727-2.9a5.028 5.028 0 0 1 2.04-1.959c.875-.464 1.886-.696 3.034-.696 1.134 0 2.135.232 3.003.696zm-5.258 2.5c-.574.616-.861 1.415-.861 2.399s.287 1.783.861 2.398c.574.616 1.326.923 2.255.923.902 0 1.64-.307 2.214-.923.574-.615.861-1.414.861-2.398 0-.984-.287-1.783-.861-2.399-.574-.615-1.312-.922-2.214-.922-.93 0-1.681.307-2.255.922zm8.261-3.095l2.788-.02 2.87 8.343 2.809-8.344h2.686L145.746 31H143l-4.222-10.947zm20.818 1.394c.882.998 1.323 2.398 1.323 4.202 0 .356-.007.622-.021.8h-8.097c.177.779.543 1.39 1.096 1.835.554.444 1.234.666 2.04.666.56 0 1.097-.106 1.61-.318.512-.212.96-.516 1.342-.912l1.435 1.496a5.55 5.55 0 0 1-1.999 1.394c-.786.329-1.657.492-2.614.492-1.12 0-2.108-.232-2.962-.697a4.873 4.873 0 0 1-1.978-1.957c-.465-.84-.697-1.808-.697-2.901 0-1.093.236-2.064.707-2.911a5.008 5.008 0 0 1 1.978-1.978c.848-.472 1.811-.708 2.891-.708 1.75 0 3.065.5 3.946 1.497zm-1.117 3.218c-.027-.806-.294-1.448-.8-1.927-.505-.478-1.175-.717-2.008-.717-.78 0-1.432.236-1.958.707-.526.472-.851 1.117-.974 1.937h5.74zm9.584-2.398c-.567-.178-1.09-.267-1.569-.267-.45 0-.81.08-1.076.236-.266.157-.4.4-.4.728 0 .342.168.605.503.79.335.184.864.378 1.588.583a15.29 15.29 0 0 1 1.887.687c.492.226.919.56 1.28 1.005.363.444.544 1.028.544 1.752 0 1.067-.41 1.886-1.23 2.46-.82.575-1.852.861-3.095.861a7.855 7.855 0 0 1-2.481-.4c-.806-.266-1.49-.645-2.05-1.137l.923-1.866c.492.424 1.08.756 1.763.995.683.239 1.332.358 1.947.358.492 0 .885-.085 1.179-.256a.834.834 0 0 0 .44-.769c0-.382-.17-.67-.512-.86-.342-.192-.895-.404-1.66-.636-.739-.219-1.34-.434-1.804-.646a3.264 3.264 0 0 1-1.21-.963c-.342-.43-.512-.994-.512-1.692 0-1.08.392-1.903 1.178-2.47.786-.567 1.773-.85 2.963-.85.724 0 1.438.102 2.142.307.704.205 1.329.492 1.875.861l-.963 1.927a7.879 7.879 0 0 0-1.65-.738z"/>
    </g>
</svg>
